<?xml version="1.0" standalone="no"?>
<!DOCTYPE svg PUBLIC "-//W3C//DTD SVG 20010904//EN"
 "http://www.w3.org/TR/2001/REC-SVG-20010904/DTD/svg10.dtd">
<svg version="1.0" xmlns="http://www.w3.org/2000/svg"
 width="500.000000pt" height="500.000000pt" viewBox="0 0 500.000000 500.000000"
 preserveAspectRatio="xMidYMid meet">

<g transform="translate(0.000000,500.000000) scale(0.100000,-0.100000)"
fill="#000000" stroke="none">
<path d="M1570 4285 l0 -215 -195 0 -195 0 0 -370 0 -371 113 3 112 3 3 253 2
252 1070 0 1070 0 0 -445 0 -445 110 0 110 0 0 560 0 560 -987 2 -988 3 -3 35
c-1 19 1 63 4 98 l6 62 1069 0 1069 0 0 -660 0 -660 110 0 110 0 0 775 0 775
-1295 0 -1295 0 0 -215z"/>
<path d="M2260 3490 l0 -70 515 0 515 0 0 70 0 70 -515 0 -515 0 0 -70z"/>
<path d="M2262 3133 l3 -68 513 -3 512 -2 0 70 0 70 -515 0 -516 0 3 -67z"/>
<path d="M525 3175 c-5 -2 -22 -6 -37 -9 -37 -8 -85 -51 -108 -97 -20 -37 -20
-67 -20 -1226 0 -1131 1 -1190 19 -1228 22 -50 69 -91 119 -105 52 -14 3952
-14 4004 0 48 14 94 53 119 101 19 38 19 61 17 1052 l-3 1013 -27 41 c-16 24
-44 49 -70 62 l-44 21 -1170 0 -1169 1 -115 187 -115 187 -695 2 c-382 1 -699
0 -705 -2z"/>
</g>
</svg>
