<?xml version="1.0" standalone="no"?>
<!DOCTYPE svg PUBLIC "-//W3C//DTD SVG 20010904//EN"
 "http://www.w3.org/TR/2001/REC-SVG-20010904/DTD/svg10.dtd">
<svg version="1.0" xmlns="http://www.w3.org/2000/svg"
 width="375.000000pt" height="375.000000pt" viewBox="0 0 375.000000 375.000000"
 preserveAspectRatio="xMidYMid meet">

<g transform="translate(0.000000,375.000000) scale(0.100000,-0.100000)"
fill="#000000" stroke="none">
<path d="M1660 3500 c-114 -15 -301 -66 -417 -115 -790 -333 -1191 -1223 -916
-2035 47 -139 149 -337 231 -446 77 -103 240 -270 327 -335 588 -439 1372
-439 1970 0 90 66 271 255 347 362 343 483 393 1140 127 1672 -64 128 -105
192 -196 304 -244 302 -572 498 -968 579 -86 18 -403 26 -505 14z m407 -35
c301 -43 549 -145 781 -322 101 -78 257 -243 334 -354 327 -469 376 -1068 132
-1596 -92 -199 -253 -407 -417 -540 -40 -32 -74 -60 -77 -63 -3 -3 -32 -23
-65 -44 -171 -112 -403 -207 -595 -243 -134 -25 -458 -25 -585 1 -311 62 -604
216 -820 431 -174 173 -303 372 -386 599 -204 550 -76 1201 318 1626 266 286
603 459 993 509 105 14 277 12 387 -4z"/>
<path d="M1175 2982 c-4 -31 -11 -72 -16 -91 -4 -19 -7 -37 -5 -39 3 -2 50 23
106 56 l101 60 -53 17 c-29 10 -70 26 -90 36 l-37 19 -6 -58z"/>
<path d="M1275 2870 c-126 -77 -152 -102 -109 -108 15 -2 32 -26 63 -92 23
-50 46 -90 50 -90 16 0 251 143 251 152 0 5 -23 43 -51 83 -28 41 -49 80 -46
87 5 15 -10 48 -21 47 -4 0 -65 -36 -137 -79z m153 -67 c31 -53 36 -83 13 -83
-6 0 -18 15 -27 33 -9 17 -27 44 -41 58 -24 26 -24 28 -6 38 26 15 25 16 61
-46z"/>
<path d="M1450 2609 c-63 -39 -122 -74 -130 -79 -16 -9 -5 -31 221 -470 185
-360 257 -486 353 -622 33 -48 66 -88 71 -88 6 0 46 21 91 48 44 26 113 65
152 87 39 22 72 43 72 48 1 28 -153 300 -278 492 -127 196 -432 655 -434 654
-2 0 -55 -32 -118 -70z m206 -147 c220 -332 215 -325 202 -338 -7 -7 -18 -14
-25 -16 -7 -2 -81 102 -166 230 -152 228 -154 233 -134 247 12 8 24 15 27 15
3 0 46 -62 96 -138z m-66 -97 c34 -55 77 -125 96 -155 43 -69 142 -234 247
-410 44 -74 88 -147 97 -161 31 -44 79 -146 73 -153 -14 -14 -26 -1 -83 97
-34 56 -79 130 -100 165 -21 34 -74 124 -116 200 -42 75 -87 153 -99 172 -72
116 -205 354 -205 367 0 15 29 -25 90 -122z m365 -367 c32 -51 70 -111 85
-133 73 -108 195 -353 153 -310 -27 29 -304 439 -331 491 -12 22 0 44 24 44 6
0 37 -42 69 -92z"/>
<path d="M2240 1451 c-30 -19 -100 -61 -155 -93 -64 -38 -92 -58 -77 -58 15 0
29 -11 43 -35 l21 -35 31 16 c38 19 197 113 214 127 10 7 10 14 1 31 -6 11
-14 35 -17 52 l-6 31 -55 -36z"/>
<path d="M2217 1258 c-116 -70 -132 -89 -75 -93 37 -3 70 -77 66 -147 l-4 -57
45 -17 c59 -21 176 -94 224 -138 40 -38 47 -71 24 -116 l-13 -25 -562 -5
c-365 -3 -562 -9 -562 -15 0 -15 1086 -19 1122 -4 52 21 56 61 23 204 -13 52
-16 97 -12 178 l6 108 -53 29 c-64 36 -102 94 -87 133 10 26 6 38 -13 36 -6
-1 -64 -33 -129 -71z m166 -128 c30 -19 32 -23 32 -79 0 -33 -1 -58 -2 -57 -1
1 -33 56 -72 121 -45 78 -65 122 -58 127 7 4 23 -13 39 -43 16 -27 43 -59 61
-69z m-56 -64 c83 -138 104 -185 46 -102 -21 30 -40 45 -62 49 -29 6 -31 10
-31 48 0 28 -10 59 -31 97 -18 30 -26 53 -19 50 7 -2 51 -66 97 -142z"/>
</g>
</svg>
