<?xml version="1.0" standalone="no"?>
<!DOCTYPE svg PUBLIC "-//W3C//DTD SVG 20010904//EN"
 "http://www.w3.org/TR/2001/REC-SVG-20010904/DTD/svg10.dtd">
<svg version="1.0" xmlns="http://www.w3.org/2000/svg"
 width="1024.000000pt" height="1024.000000pt" viewBox="0 0 1024.000000 1024.000000"
 preserveAspectRatio="xMidYMid meet">

<g transform="translate(0.000000,1024.000000) scale(0.100000,-0.100000)"
fill="#000000" stroke="none">
<path d="M680 10221 c-173 -37 -317 -118 -442 -249 -121 -127 -201 -284 -227
-452 -8 -44 -11 -1441 -11 -4405 0 -4201 1 -4343 19 -4431 37 -179 117 -321
251 -448 92 -85 164 -132 270 -175 166 -66 -97 -62 3550 -59 3170 3 3308 4
3370 21 105 30 258 109 335 174 136 115 238 273 287 448 l23 80 3 2008 2 2008
178 202 c620 708 1820 2113 1860 2179 111 185 114 421 6 611 -48 84 -127 160
-518 495 -337 290 -411 348 -480 382 -217 107 -431 88 -633 -56 -46 -33 -111
-102 -236 -252 l-172 -206 -5 710 c-6 693 -6 711 -28 789 -48 173 -151 333
-287 448 -77 65 -230 144 -335 174 -62 17 -198 18 -3380 20 -3159 2 -3319 1
-3400 -16z m6708 -431 c119 -42 214 -132 264 -250 l23 -55 3 -945 2 -945 -671
-777 -671 -778 -2507 0 c-2796 0 -2576 6 -2644 -69 -89 -99 -66 -268 45 -331
l43 -25 2347 -5 2346 -5 -421 -497 -422 -497 -1905 -1 c-1363 0 -1916 -3
-1945 -11 -55 -15 -120 -82 -135 -139 -29 -106 12 -207 105 -258 28 -16 171
-17 1768 -22 l1738 -5 -270 -315 c-176 -206 -272 -325 -277 -345 -3 -16 -24
-94 -46 -172 l-41 -143 -1412 0 -1411 0 -55 -27 c-166 -85 -133 -353 49 -392
38 -8 433 -11 1389 -11 1064 0 1334 -3 1331 -12 -3 -7 -61 -232 -129 -500
l-124 -488 -1226 0 c-899 0 -1235 -3 -1260 -12 -57 -19 -90 -49 -115 -102 -61
-130 5 -277 136 -305 36 -8 444 -11 1360 -11 1289 0 1310 0 1352 20 24 11 441
184 928 384 487 200 901 373 921 385 22 13 394 435 940 1065 l904 1044 3
-1691 c1 -930 -2 -1693 -6 -1696 -4 -3 -13 -34 -19 -68 -25 -136 -114 -253
-240 -315 l-68 -33 -3310 0 -3310 0 -65 31 c-95 45 -162 111 -207 202 l-38 76
0 4376 0 4376 38 76 c54 110 144 186 262 224 32 10 699 13 3318 13 3258 1
3278 1 3335 -19z m1575 -1555 c53 -25 790 -662 815 -704 30 -52 39 -129 19
-170 -8 -17 -104 -134 -212 -261 l-197 -230 -73 63 c-160 138 -832 725 -879
768 l-50 46 189 232 c151 188 196 237 229 252 50 23 117 24 159 4z m-375
-1249 c271 -236 492 -433 492 -438 0 -10 -3348 -3932 -3361 -3936 -12 -5
-1020 859 -1017 870 6 18 3381 3939 3387 3936 4 -2 229 -196 499 -432z m-3623
-4296 c200 -173 364 -317 364 -320 1 -9 -1094 -447 -1097 -439 -2 4 62 260
142 569 80 309 146 564 146 567 0 7 21 -10 445 -377z"/>
<path d="M1275 8885 c-93 -25 -154 -122 -142 -227 11 -90 57 -150 136 -176 25
-9 738 -12 2801 -12 l2766 0 50 25 c148 74 149 299 1 378 l-42 22 -2760 2
c-2276 1 -2769 -1 -2810 -12z"/>
<path d="M1275 7455 c-173 -46 -195 -315 -32 -391 l52 -24 2760 0 c1991 0
2771 3 2800 11 100 28 162 147 135 259 -18 74 -77 133 -149 149 -83 18 -5499
14 -5566 -4z"/>
</g>
</svg>
